<mxfile host="app.diagrams.net" agent="Mozilla/5.0 (Windows NT 10.0; Win64; x64) AppleWebKit/537.36 (KHTML, like Gecko) Chrome/135.0.0.0 Safari/537.36" version="26.2.12">
  <diagram name="Page-1" id="WS1Qd_SUKa9Jlxbu_MnT">
    <mxGraphModel dx="1215" dy="1454" grid="1" gridSize="10" guides="1" tooltips="1" connect="1" arrows="1" fold="1" page="1" pageScale="1" pageWidth="1100" pageHeight="850" math="0" shadow="0">
      <root>
        <mxCell id="0" />
        <mxCell id="1" parent="0" />
        <mxCell id="kZfsUoKmfzgFYKaYsRHd-48" value="" style="edgeStyle=orthogonalEdgeStyle;rounded=0;orthogonalLoop=1;jettySize=auto;html=1;" parent="1" source="hT3tXOvIoMV8yMWTtYdV-3" target="hT3tXOvIoMV8yMWTtYdV-4" edge="1">
          <mxGeometry relative="1" as="geometry" />
        </mxCell>
        <mxCell id="hT3tXOvIoMV8yMWTtYdV-3" value="WebMVC" style="rounded=1;whiteSpace=wrap;html=1;" parent="1" vertex="1">
          <mxGeometry x="350" y="250" width="120" height="60" as="geometry" />
        </mxCell>
        <mxCell id="hT3tXOvIoMV8yMWTtYdV-4" value="WebApi" style="rounded=1;whiteSpace=wrap;html=1;" parent="1" vertex="1">
          <mxGeometry x="210" y="250" width="120" height="60" as="geometry" />
        </mxCell>
        <mxCell id="kZfsUoKmfzgFYKaYsRHd-41" value="PostgreSql" style="strokeWidth=2;html=1;shape=mxgraph.flowchart.database;whiteSpace=wrap;" parent="1" vertex="1">
          <mxGeometry x="460" y="405" width="110" height="150" as="geometry" />
        </mxCell>
        <mxCell id="kZfsUoKmfzgFYKaYsRHd-15" value="Monolith Backend" style="shape=umlFrame;whiteSpace=wrap;html=1;pointerEvents=0;width=140;height=30;" parent="1" vertex="1">
          <mxGeometry x="80" y="140" width="660" height="430" as="geometry" />
        </mxCell>
        <mxCell id="iy_XooArhHiPdHr4kV8d-7" value="Tests" style="rounded=1;whiteSpace=wrap;html=1;" parent="1" vertex="1">
          <mxGeometry x="80" y="250" width="120" height="60" as="geometry" />
        </mxCell>
        <mxCell id="iy_XooArhHiPdHr4kV8d-11" style="edgeStyle=orthogonalEdgeStyle;rounded=0;orthogonalLoop=1;jettySize=auto;html=1;exitX=0.5;exitY=1;exitDx=0;exitDy=0;" parent="1" edge="1">
          <mxGeometry relative="1" as="geometry">
            <mxPoint x="585" y="435" as="sourcePoint" />
            <mxPoint x="585" y="435" as="targetPoint" />
          </mxGeometry>
        </mxCell>
        <mxCell id="uQ87ipOgRGaYVOCsxW2n-3" value="Application" style="rounded=1;whiteSpace=wrap;html=1;" parent="1" vertex="1">
          <mxGeometry x="130" y="435" width="120" height="60" as="geometry" />
        </mxCell>
        <mxCell id="_mJTwIaDnK2bTvEYmpJ9-1" value="Domain" style="rounded=1;whiteSpace=wrap;html=1;" parent="1" vertex="1">
          <mxGeometry x="130" y="505" width="120" height="60" as="geometry" />
        </mxCell>
        <mxCell id="_mJTwIaDnK2bTvEYmpJ9-5" value="" style="edgeStyle=orthogonalEdgeStyle;rounded=0;orthogonalLoop=1;jettySize=auto;html=1;" parent="1" source="_mJTwIaDnK2bTvEYmpJ9-3" target="_mJTwIaDnK2bTvEYmpJ9-4" edge="1">
          <mxGeometry relative="1" as="geometry" />
        </mxCell>
        <mxCell id="_mJTwIaDnK2bTvEYmpJ9-3" value="Users (ViteJs)" style="rounded=1;whiteSpace=wrap;html=1;" parent="1" vertex="1">
          <mxGeometry x="90" y="40" width="120" height="60" as="geometry" />
        </mxCell>
        <mxCell id="_mJTwIaDnK2bTvEYmpJ9-7" style="edgeStyle=orthogonalEdgeStyle;rounded=0;orthogonalLoop=1;jettySize=auto;html=1;" parent="1" source="_mJTwIaDnK2bTvEYmpJ9-4" target="hT3tXOvIoMV8yMWTtYdV-4" edge="1">
          <mxGeometry relative="1" as="geometry" />
        </mxCell>
        <mxCell id="_mJTwIaDnK2bTvEYmpJ9-9" value="" style="edgeStyle=orthogonalEdgeStyle;rounded=0;orthogonalLoop=1;jettySize=auto;html=1;" parent="1" source="_mJTwIaDnK2bTvEYmpJ9-4" target="_mJTwIaDnK2bTvEYmpJ9-8" edge="1">
          <mxGeometry relative="1" as="geometry" />
        </mxCell>
        <mxCell id="_mJTwIaDnK2bTvEYmpJ9-4" value="BFF" style="rounded=1;whiteSpace=wrap;html=1;" parent="1" vertex="1">
          <mxGeometry x="210" y="160" width="120" height="60" as="geometry" />
        </mxCell>
        <mxCell id="_mJTwIaDnK2bTvEYmpJ9-8" value="Keycloak" style="rounded=1;whiteSpace=wrap;html=1;" parent="1" vertex="1">
          <mxGeometry x="480" y="250" width="120" height="60" as="geometry" />
        </mxCell>
        <mxCell id="_mJTwIaDnK2bTvEYmpJ9-15" style="edgeStyle=orthogonalEdgeStyle;rounded=0;orthogonalLoop=1;jettySize=auto;html=1;" parent="1" source="_mJTwIaDnK2bTvEYmpJ9-14" target="hT3tXOvIoMV8yMWTtYdV-3" edge="1">
          <mxGeometry relative="1" as="geometry" />
        </mxCell>
        <mxCell id="_mJTwIaDnK2bTvEYmpJ9-14" value="Users (MVC)" style="rounded=1;whiteSpace=wrap;html=1;" parent="1" vertex="1">
          <mxGeometry x="380" y="40" width="120" height="60" as="geometry" />
        </mxCell>
        <mxCell id="_mJTwIaDnK2bTvEYmpJ9-17" value="Infrastructure" style="rounded=1;whiteSpace=wrap;html=1;" parent="1" vertex="1">
          <mxGeometry x="260" y="435" width="120" height="60" as="geometry" />
        </mxCell>
        <mxCell id="_mJTwIaDnK2bTvEYmpJ9-18" value="Cross-Cutting" style="rounded=1;whiteSpace=wrap;html=1;" parent="1" vertex="1">
          <mxGeometry x="260" y="505" width="120" height="60" as="geometry" />
        </mxCell>
        <mxCell id="_mJTwIaDnK2bTvEYmpJ9-19" value="Clean Architecture" style="shape=umlFrame;whiteSpace=wrap;html=1;pointerEvents=0;width=140;height=30;" parent="1" vertex="1">
          <mxGeometry x="110" y="390" width="290" height="180" as="geometry" />
        </mxCell>
        <mxCell id="_mJTwIaDnK2bTvEYmpJ9-23" value="" style="endArrow=classic;html=1;rounded=0;" parent="1" source="iy_XooArhHiPdHr4kV8d-7" target="_mJTwIaDnK2bTvEYmpJ9-19" edge="1">
          <mxGeometry width="50" height="50" relative="1" as="geometry">
            <mxPoint x="600" y="340" as="sourcePoint" />
            <mxPoint x="650" y="290" as="targetPoint" />
          </mxGeometry>
        </mxCell>
        <mxCell id="_mJTwIaDnK2bTvEYmpJ9-25" value="" style="endArrow=classic;html=1;rounded=0;" parent="1" source="hT3tXOvIoMV8yMWTtYdV-4" target="_mJTwIaDnK2bTvEYmpJ9-19" edge="1">
          <mxGeometry width="50" height="50" relative="1" as="geometry">
            <mxPoint x="188" y="320" as="sourcePoint" />
            <mxPoint x="290" y="400" as="targetPoint" />
          </mxGeometry>
        </mxCell>
        <mxCell id="_mJTwIaDnK2bTvEYmpJ9-26" value="" style="endArrow=classic;html=1;rounded=0;" parent="1" source="hT3tXOvIoMV8yMWTtYdV-3" target="_mJTwIaDnK2bTvEYmpJ9-19" edge="1">
          <mxGeometry width="50" height="50" relative="1" as="geometry">
            <mxPoint x="307" y="320" as="sourcePoint" />
            <mxPoint x="353" y="400" as="targetPoint" />
          </mxGeometry>
        </mxCell>
        <mxCell id="_mJTwIaDnK2bTvEYmpJ9-27" value="" style="endArrow=classic;html=1;rounded=0;" parent="1" source="_mJTwIaDnK2bTvEYmpJ9-8" target="_mJTwIaDnK2bTvEYmpJ9-19" edge="1">
          <mxGeometry width="50" height="50" relative="1" as="geometry">
            <mxPoint x="443" y="320" as="sourcePoint" />
            <mxPoint x="425" y="400" as="targetPoint" />
          </mxGeometry>
        </mxCell>
        <mxCell id="_mJTwIaDnK2bTvEYmpJ9-28" value="" style="endArrow=classic;html=1;rounded=0;exitX=0.998;exitY=0.506;exitDx=0;exitDy=0;exitPerimeter=0;" parent="1" source="kZfsUoKmfzgFYKaYsRHd-15" target="_mJTwIaDnK2bTvEYmpJ9-29" edge="1">
          <mxGeometry width="50" height="50" relative="1" as="geometry">
            <mxPoint x="579" y="320" as="sourcePoint" />
            <mxPoint x="840" y="420" as="targetPoint" />
          </mxGeometry>
        </mxCell>
        <mxCell id="_mJTwIaDnK2bTvEYmpJ9-32" value="End Users" style="shape=umlFrame;whiteSpace=wrap;html=1;pointerEvents=0;width=140;height=30;" parent="1" vertex="1">
          <mxGeometry x="80" y="-15" width="660" height="135" as="geometry" />
        </mxCell>
        <mxCell id="_mJTwIaDnK2bTvEYmpJ9-34" value="" style="group" parent="1" vertex="1" connectable="0">
          <mxGeometry x="760" y="70" width="270" height="230" as="geometry" />
        </mxCell>
        <mxCell id="kZfsUoKmfzgFYKaYsRHd-35" value="Cloudinary" style="ellipse;whiteSpace=wrap;html=1;" parent="_mJTwIaDnK2bTvEYmpJ9-34" vertex="1">
          <mxGeometry x="140" y="95" width="120" height="80" as="geometry" />
        </mxCell>
        <mxCell id="kZfsUoKmfzgFYKaYsRHd-39" value="GoogleOpenId" style="ellipse;whiteSpace=wrap;html=1;" parent="_mJTwIaDnK2bTvEYmpJ9-34" vertex="1">
          <mxGeometry x="20" y="140" width="120" height="80" as="geometry" />
        </mxCell>
        <mxCell id="Z1kF_d6296XIwxNKDmiX-1" value="GHN" style="ellipse;whiteSpace=wrap;html=1;" parent="_mJTwIaDnK2bTvEYmpJ9-34" vertex="1">
          <mxGeometry x="20" y="50" width="120" height="80" as="geometry" />
        </mxCell>
        <mxCell id="_mJTwIaDnK2bTvEYmpJ9-29" value="Cloud" style="shape=umlFrame;whiteSpace=wrap;html=1;pointerEvents=0;width=140;height=30;" parent="_mJTwIaDnK2bTvEYmpJ9-34" vertex="1">
          <mxGeometry width="270" height="230" as="geometry" />
        </mxCell>
        <mxCell id="XNaDJOQneKp4bcFKr7OF-1" value="BackGroundWorker" style="rounded=1;whiteSpace=wrap;html=1;" vertex="1" parent="1">
          <mxGeometry x="610" y="250" width="120" height="60" as="geometry" />
        </mxCell>
      </root>
    </mxGraphModel>
  </diagram>
</mxfile>
